# xmcd
#
# Track frame offsets: 
#        150
#        11571
#        24050
#        36774
#        51962
#        68114
#        81921
#        94372
#        113696
#        125640
#        135768
#        152996
#        167673
#        177211
#        194689
#        207285
#        220555
#        234348
#        243469
#        254917
#        269386
#        281553
#        303015
#        314261
#        322735
#        332910
#        341999
#
# Disc length: 4646 seconds
#
# Revision: 0
# Processed by: cddbd v1.5.2PL0 Copyright (c) Steve Scherf et al.
# Submitted via: ExactAudioCopy v0.95b3
#
DISCID=8212241b
DTITLE=The Beatles  - Complete Home Recordings Home Tapes 5 - 1968
DYEAR=1900
DGENRE=
TTITLE0=Cry Baby Cry
TTITLE1=Child Of Nature
TTITLE2=The Continuing Story Of Bungalow Bill
TTITLE3=I'm So Tired
TTITLE4=Yer Blues
TTITLE5=Everybody's Got Something To Hide Except Me And My Monkey
TTITLE6=What's The New Mary Jane
TTITLE7=Revolution
TTITLE8=While My Guitar Gently Weeps
TTITLE9=Circles
TTITLE10=Sour Milk Sea
TTITLE11=Not Guilty
TTITLE12=Piggies
TTITLE13=Julia
TTITLE14=Blackbird
TTITLE15=Rocky Raccoon
TTITLE16=Back In The U.S.S.R.
TTITLE17=Honey Pie
TTITLE18=Mother Nature's Son
TTITLE19=Ob-La-Di, Ob-La-Da
TTITLE20=Junk
TTITLE21=Dear Prudence
TTITLE22=Sexy Sadie
TTITLE23=Glass Onion
TTITLE24=Happiness Is A Warm Gun
TTITLE25=Mean Mr. Mustard
TTITLE26=Polythene Pam
EXTD=
EXTT0=
EXTT1=
EXTT2=
EXTT3=
EXTT4=
EXTT5=
EXTT6=
EXTT7=
EXTT8=
EXTT9=
EXTT10=
EXTT11=
EXTT12=
EXTT13=
EXTT14=
EXTT15=
EXTT16=
EXTT17=
EXTT18=
EXTT19=
EXTT20=
EXTT21=
EXTT22=
EXTT23=
EXTT24=
EXTT25=
EXTT26=
PLAYORDER=
